<svg id="Capa_1" enable-background="0 0 512 512" height="512" viewBox="0 0 512 512" width="512"
     xmlns="http://www.w3.org/2000/svg">
    <g id="XMLID_30_">
        <path id="XMLID_53_"
              d="m459.102 114.203c8.014 0 15.692-7.047 15.322-15.322-.372-8.301-6.732-15.322-15.322-15.322-8.014 0-15.692 7.047-15.322 15.322.373 8.302 6.733 15.322 15.322 15.322z"/>
        <path id="XMLID_90_"
              d="m30.095 53.853c8.014 0 15.692-7.047 15.322-15.322-.372-8.301-6.732-15.321-15.322-15.321-8.014 0-15.692 7.047-15.322 15.322.372 8.301 6.733 15.321 15.322 15.321z"/>
        <path id="XMLID_92_"
              d="m450.448 423.323c-8.014 0-15.692 7.047-15.322 15.322.372 8.301 6.732 15.322 15.322 15.322 8.014 0 15.693-7.047 15.322-15.322-.372-8.301-6.732-15.322-15.322-15.322z"/>
        <path id="XMLID_93_"
              d="m282.633 481.357c-8.014 0-15.692 7.047-15.322 15.322.372 8.301 6.732 15.322 15.322 15.322 8.014 0 15.692-7.047 15.322-15.322-.372-8.302-6.732-15.322-15.322-15.322z"/>
        <path id="XMLID_94_"
              d="m279.328 270.485c.372 8.301 6.732 15.322 15.322 15.322 8.014 0 15.692-7.047 15.322-15.322-.372-8.301-6.732-15.322-15.322-15.322-8.015 0-15.693 7.047-15.322 15.322z"/>
        <path id="XMLID_95_"
              d="m35.67 455.543c-8.014 0-15.692 7.047-15.322 15.322.372 8.301 6.732 15.322 15.322 15.322 8.014 0 15.692-7.047 15.322-15.322-.372-8.301-6.733-15.322-15.322-15.322z"/>
        <path id="XMLID_96_"
              d="m487.73 0c-8.014 0-15.692 7.047-15.322 15.322.372 8.301 6.732 15.322 15.322 15.322 8.014 0 15.692-7.047 15.322-15.322-.372-8.302-6.732-15.322-15.322-15.322z"/>
        <path id="XMLID_97_"
              d="m305.206 374.188c-86.811 0-157.436-70.625-157.436-157.436 0-81.415 61.01-148.774 141.916-156.682l31.546-3.083-29.472-11.665c-24.228-9.589-49.829-14.451-76.09-14.451-113.994 0-206.735 92.745-206.735 206.743 0 113.994 92.741 206.735 206.735 206.735 58.173 0 113.969-24.709 153.082-67.79l21.28-23.439-29.642 11.117c-17.608 6.603-36.174 9.951-55.184 9.951z"/>
        <path id="XMLID_98_"
              d="m410.897 152.866-6.721-12.29-6.721 12.29c-13.557 24.789-33.826 45.057-58.615 58.615l-12.289 6.721 12.289 6.721c24.789 13.558 45.058 33.826 58.615 58.615l6.721 12.29 6.721-12.29c13.557-24.789 33.826-45.058 58.615-58.615l12.289-6.721-12.289-6.721c-24.789-13.558-45.058-33.827-58.615-58.615z"/>
    </g>
</svg>